<svg width="166" height="22" viewBox="0 0 166 22" version="1.1" xmlns="http://www.w3.org/2000/svg" xmlns:xlink="http://www.w3.org/1999/xlink">
<title>Hunter Lab Logo_White</title>
<desc>Created using Figma</desc>
<g id="Canvas" transform="translate(-279 2756)">
<g id="Hunter Lab Logo_White">
<g id="Fill 1">
<use xlink:href="#path0_fill" transform="translate(399 -2755)"/>
</g>
<g id="Fill 2">
<use xlink:href="#path1_fill" transform="translate(377 -2755)"/>
</g>
<g id="Fill 3">
<use xlink:href="#path2_fill" transform="translate(355 -2755)"/>
</g>
<g id="Fill 4">
<use xlink:href="#path3_fill" transform="translate(279 -2755)"/>
</g>
<g id="Fill 5">
<use xlink:href="#path4_fill" transform="translate(423 -2756)"/>
</g>
<g id="Fill 6">
<use xlink:href="#path5_fill" transform="translate(437 -2748)"/>
</g>
<g id="Fill 7">
<use xlink:href="#path6_fill" transform="translate(432 -2749)"/>
</g>
<g id="Fill 8">
<use xlink:href="#path7_fill" transform="translate(429 -2748)"/>
</g>
</g>
</g>
<defs>
<path id="path0_fill" fill-rule="evenodd" d="M 19.7316 17.13C 19.6118 16.8078 18.9517 15.0217 18.4722 13.8504C 17.5421 11.5665 15.4436 10.6004 13.4339 10.1322L 13.4339 9.83887C 16.703 8.96025 19.1619 7.76013 19.1619 4.56867C 19.1619 1.31793 16.1029 0 11.2451 0L 0 0L 0 0.995668C 0.539409 1.02531 1.79881 1.25941 2.36857 1.4935C 3.11814 1.78688 3.29795 2.28472 3.29795 2.92848L 3.29795 17.2471C 3.29795 17.8916 3.08856 18.4183 2.36857 18.6821C 1.97861 18.8288 0.539409 18.9747 0 19.0043L 0 20L 11.3953 20L 11.3953 19.0043C 10.8551 18.9747 9.59572 18.7406 9.23612 18.5939C 8.54648 18.3013 8.30674 17.8034 8.30674 17.1589L 8.30674 10.659L 8.69671 10.659C 10.9454 10.659 12.415 12.0643 13.3739 14.3779C 14.1842 16.3692 14.6341 17.862 15.0832 20L 23 20L 23 19.0043C 22.5501 18.9747 21.9508 18.8873 21.4705 18.7695C 20.5411 18.5354 20.1512 18.2716 19.7316 17.13ZM 8.87572 9.4582L 8.30673 9.4582L 8.30673 1.17212L 9.41591 1.17212C 12.0849 1.17212 13.7343 2.28483 13.7343 4.94882C 13.7343 8.08251 11.5152 9.4582 8.87572 9.4582Z"/>
<path id="path1_fill" fill-rule="evenodd" d="M 17.0406 18.0961C 16.2801 18.8288 14.0003 18.7991 12.4793 18.7991C 9.28035 18.7991 8.77391 18.5354 8.77391 16.1344L 8.77391 10.2485L 10.8959 10.2485C 12.6059 10.2485 13.2719 10.7175 13.6829 11.1272C 14.0628 11.5079 14.792 13.0311 14.8553 13.8801L 16.0269 13.8801L 16.0269 5.5347L 14.8553 5.5347C 14.7599 6.29627 14.1581 7.7016 13.6829 8.14091C 13.3031 8.49206 12.6692 9.01953 10.8959 9.01953L 8.77391 9.01953L 8.77391 1.172L 11.8142 1.172C 12.8279 1.172 13.6829 1.22976 14.4434 1.31793C 15.9002 1.4935 17.6424 3.77746 18.1176 5.09539L 19.2891 5.09539L 19.2891 0L 0 0L 0 0.995668C 0.569745 1.02531 1.90079 1.25941 2.50178 1.4935C 3.29433 1.78688 3.48424 2.28472 3.48424 2.92848L 3.48424 17.2471C 3.48424 17.8916 3.26226 18.4183 2.50178 18.6821C 2.09071 18.8288 0.569745 18.9747 0 19.0043L 0 20L 20.5881 20L 21 13.763L 19.8909 13.763C 19.5111 14.6416 18.0222 17.1589 17.0406 18.0961Z"/>
<path id="path2_fill" fill-rule="evenodd" d="M 0 5.62286L 1.13289 5.62286C 1.56219 4.33381 3.15459 1.4935 4.47192 1.31793C 5.2065 1.22976 6.15654 1.172 6.82991 1.172L 7.44286 1.172L 7.44286 17.1886C 7.44286 17.8323 7.22821 18.4183 6.49283 18.6821C 6.09532 18.8288 4.53313 18.9747 3.9814 19.0043L 3.9814 20L 16.0186 20L 16.0186 19.0043C 15.4677 18.9747 13.8745 18.6821 13.5072 18.5354C 12.8028 18.2428 12.5571 17.6864 12.5571 17.0426L 12.5571 1.172L 13.1701 1.172C 13.9667 1.172 14.7935 1.22976 15.5281 1.31793C 16.8454 1.4935 18.4378 4.30493 18.8671 5.62286L 20 5.62286L 20 0L 0 0L 0 5.62286Z"/>
<path id="path3_fill" fill-rule="evenodd" d="M 63.5676 1.02154C 64.121 1.05195 65.9952 1.50267 66.5176 1.92299C 67.1931 2.46339 67.5616 3.51534 67.5616 6.00913L 67.5616 13.6995L 56.2853 0L 39.7587 0L 39.7587 1.02154C 40.3114 1.05195 42.1856 1.50267 42.708 1.92299C 43.3843 2.46339 43.7528 3.51534 43.7528 6.00913L 43.7528 13.1887C 43.7528 17.1244 41.7861 19.2275 38.4069 19.2275C 34.9647 19.2275 33.2445 17.4854 33.2445 13.3993L 33.2445 2.82443C 33.2445 2.16316 33.4287 1.59235 34.1967 1.35217C 34.7502 1.17204 35.8564 1.02154 36.4091 0.991905L 36.4091 0L 13.7958 0L 13.7958 1.02154C 14.3493 1.05195 15.4857 1.32176 16.0081 1.53231C 16.7147 1.83331 16.9604 2.34408 16.9604 3.00457L 16.9604 9.13301L 8.23455 9.13301L 8.23455 2.85407C 8.23455 2.19358 8.41878 1.62276 9.18681 1.38258C 9.7403 1.20245 10.8465 1.05195 11.3992 1.02154L 11.3992 0L 0 0L 0 1.02154C 0.552692 1.05195 1.62857 1.32176 2.15095 1.53231C 2.88788 1.83331 3.10321 2.34408 3.10321 3.00457L 3.10321 17.7553C 3.10321 18.4165 2.88788 18.9569 2.15095 19.2275C 1.75139 19.378 0.552692 19.4677 0 19.4981L 0 20.5196L 11.3992 20.5196L 11.3992 19.4981C 10.8465 19.4677 9.55607 19.2275 9.18681 19.077C 8.48019 18.7768 8.23455 18.266 8.23455 17.6048L 8.23455 10.5452L 16.9604 10.5452L 16.9604 17.7553C 16.9604 18.4165 16.7458 18.9569 16.0081 19.2275C 15.6086 19.378 14.3493 19.4677 13.7958 19.4981L 13.7958 20.5196L 25.1949 20.5196L 25.1949 19.4981C 24.6422 19.4677 23.4132 19.2571 23.0448 19.077C 22.3374 18.7464 22.0917 18.266 22.0917 17.6048L 22.0917 2.85407C 22.0917 2.19358 22.2768 1.62276 23.0448 1.38258C 23.2928 1.30149 23.6397 1.2274 23.997 1.16658C 24.3448 1.12057 25.1917 1.02388 25.7995 1.09874C 26.2748 1.18296 26.8004 1.31162 27.1306 1.47226C 27.8372 1.83331 28.0828 2.31367 28.0828 2.97494L 28.0828 13.5794C 28.0828 17.9658 31.3703 21 37.2393 21C 41.9097 21 45.3199 18.4462 45.3199 13.6098L 45.3199 5.85863C 45.3199 3.39525 45.5959 2.25362 46.3336 1.74285C 46.6295 1.53776 47.0642 1.39194 47.5116 1.28511C 47.9622 1.20323 48.7876 1.13695 49.708 1.46524C 50.3747 1.72414 50.9896 2.05087 51.4004 2.43375C 52.0456 3.03498 52.3526 3.8756 52.3526 4.8371L 52.3526 14.661C 52.3526 17.1244 52.0759 18.266 51.3389 18.7768C 50.6012 19.2876 49.0038 19.4381 48.4814 19.4981L 48.4814 20.5196L 57.9138 20.5196L 57.9138 19.4981C 57.3611 19.4677 55.4869 19.017 54.9645 18.5967C 54.2882 18.0555 53.9198 17.0043 53.9198 14.5113L 53.9198 4.80746L 66.9164 20.6397L 69.1296 20.6397L 69.1296 5.85863C 69.1296 3.39525 69.4055 2.25362 70.1432 1.74285C 70.8801 1.23208 72.4784 1.08158 73 1.02154L 73 0L 63.5676 0L 63.5676 1.02154Z"/>
<path id="path4_fill" fill-rule="evenodd" d="M 11 0C 4.9347 0 0 4.70996 0 10.5C 0 16.29 4.9347 21 11 21C 17.0653 21 22 16.29 22 10.5C 22 4.70996 17.0653 0 11 0ZM 11 20.0578C 5.47896 20.0578 0.987915 15.7705 0.987915 10.5001C 0.987915 5.22961 5.47896 0.942383 11 0.942383C 16.521 0.942383 21.0121 5.22961 21.0121 10.5001C 21.0121 15.7705 16.521 20.0578 11 20.0578Z"/>
<path id="path5_fill" fill-rule="evenodd" d="M 2.08202 2.68271C 2.4644 2.47992 2.69357 2.10876 2.69357 1.55276L 2.69357 1.47343C 2.69357 0.599401 2.12811 0 1.23934 0L 0 0L 0 6L 1.30816 6C 2.40403 6 3 5.30407 3 4.26241L 3 4.14717C 3 3.37042 2.60982 2.85857 2.08202 2.68271ZM 0.779694 0.793213L 1.21661 0.793213C 1.66067 0.793213 1.91386 1.04914 1.91386 1.55275L 1.91386 1.60514C 1.91386 2.09977 1.67625 2.36468 1.23933 2.36468L 0.779694 2.36468L 0.779694 0.793213ZM 2.19692 4.20924C 2.19692 4.82734 1.89828 5.20674 1.28543 5.20674L 0.779694 5.20674L 0.779694 3.10547L 1.27764 3.10547C 1.89049 3.10547 2.19692 3.5118 2.19692 4.12917L 2.19692 4.20924Z"/>
<path id="path6_fill" fill-rule="evenodd" d="M 1.94408 0L 0 7L 0.891068 7L 1.11329 6.1329L 2.83515 6.1329L 3.05737 7L 4 7L 2.05519 0L 1.94408 0ZM 2.60347 5.24598L 1.34494 5.24598L 1.76469 3.66408C 1.85838 3.28591 1.96949 2.71476 1.98692 2.65332C 1.99563 2.73553 2.10674 3.29629 2.20115 3.66408L 2.60347 5.24598Z"/>
<path id="path7_fill" fill-rule="evenodd" d="M 0.993043 0L 0 0L 0 6L 3 6L 3 5.18883L 0.993043 5.18883L 0.993043 0Z"/>
</defs>
</svg>
